<svg width="923" height="923" viewBox="0 0 923 923" fill="none" xmlns="http://www.w3.org/2000/svg">
<g clip-path="url(#clip0_21_16)">
<path d="M690.21 298.087L688.133 293.362L685.018 298.087H676.605L673.79 293.782L671.473 299.163C667.694 296.703 664.68 293.486 662.557 290.791C662.534 290.777 662.516 290.763 662.493 290.75C661.883 307.885 661.006 339.106 666.729 372.301C667.034 374.064 667.509 375.795 668.118 377.475L668.404 378.264C667.735 376.427 668.663 374.392 670.49 373.695L702.172 361.622L706.81 285.281C700.982 291.608 690.206 298.083 690.206 298.083L690.21 298.087Z" fill="#EEF3F9"/>
<path d="M702.601 223.154C699.805 223.154 697.936 225.489 696.745 227.912L693.201 226.043C691.793 220.269 692.079 214.113 694.562 208.713C694.59 208.653 694.617 208.589 694.645 208.529C696.528 204.237 694.276 199.211 689.855 197.651C678.728 193.733 666.914 194.762 659.368 196.17C654.245 197.125 650.115 200.937 648.846 205.99C642.583 230.888 653.41 256.192 668.607 256.192L669.027 275.829C669.069 277.795 670.103 279.609 671.764 280.666C680.685 286.328 692.301 281.03 697.733 277.897C699.62 276.808 700.732 274.754 700.635 272.58L699.449 245.979C712.911 238.817 708.426 223.158 702.601 223.158V223.154Z" fill="#FFB197"/>
<path d="M717.734 194.282C717.346 189.686 713.894 185.994 709.367 185.112C705.453 184.351 700.225 182.422 694.433 177.844C682.115 168.106 673.093 168.392 658.196 170.824C643.299 173.261 649.174 189.875 649.174 189.875C649.174 189.875 640.363 190.664 637.858 201.837C636.021 210.015 643.114 217.639 647.046 221.142C647 216.222 647.558 211.104 648.841 205.995C650.11 200.942 654.245 197.125 659.368 196.17C666.914 194.762 678.728 193.738 689.85 197.651C694.271 199.206 696.523 204.237 694.641 208.529C694.613 208.589 694.585 208.653 694.557 208.713C692.075 214.113 691.788 220.269 693.196 226.043L696.74 227.912C697.931 225.484 699.8 223.154 702.597 223.154C706.187 223.154 709.261 229.098 707.95 235.337C718.929 227.4 718.643 205.095 717.734 194.282Z" fill="#1C3C4F"/>
<path d="M846.299 111.489H737.565C730.065 111.489 723.932 117.622 723.932 125.122V164.1C723.932 171.6 730.065 177.733 737.565 177.733H743.799V204.061L767.05 177.733H846.303C853.803 177.733 859.936 171.6 859.936 164.1V125.122C859.936 117.622 853.803 111.489 846.303 111.489H846.299Z" fill="#4AC0F0"/>
<path d="M751.322 150.306C754.47 150.306 757.022 147.754 757.022 144.606C757.022 141.459 754.47 138.907 751.322 138.907C748.174 138.907 745.623 141.459 745.623 144.606C745.623 147.754 748.174 150.306 751.322 150.306Z" fill="white"/>
<path d="M778.394 150.306C781.541 150.306 784.093 147.754 784.093 144.606C784.093 141.459 781.541 138.907 778.394 138.907C775.246 138.907 772.694 141.459 772.694 144.606C772.694 147.754 775.246 150.306 778.394 150.306Z" fill="white"/>
<path d="M832.537 150.306C835.685 150.306 838.236 147.754 838.236 144.606C838.236 141.459 835.685 138.907 832.537 138.907C829.389 138.907 826.837 141.459 826.837 144.606C826.837 147.754 829.389 150.306 832.537 150.306Z" fill="white"/>
<path d="M805.465 150.306C808.613 150.306 811.165 147.754 811.165 144.606C811.165 141.459 808.613 138.907 805.465 138.907C802.317 138.907 799.766 141.459 799.766 144.606C799.766 147.754 802.317 150.306 805.465 150.306Z" fill="white"/>
<path d="M788.159 851.754C787.91 851.754 787.665 851.763 787.421 851.767C785.579 849.534 784.112 846.876 782.939 844.176H738.677L742.087 882.979H824.128C824.207 882.033 824.253 881.082 824.253 880.113C824.253 862.396 809.023 851.754 788.159 851.754Z" fill="#C46C3F"/>
<path d="M778.957 830.271H737.454L738.677 844.18H782.939C780.558 838.702 779.409 833.031 778.957 830.271Z" fill="#E4E6EC"/>
<path d="M610.985 844.18C609.812 846.88 608.345 849.534 606.503 851.772C606.259 851.768 606.014 851.758 605.765 851.758C584.901 851.758 569.671 862.4 569.671 880.117C569.671 881.082 569.717 882.037 569.796 882.983H651.836L655.247 844.18H610.985Z" fill="#C46C3F"/>
<path d="M610.984 844.18H655.247L656.47 830.271H614.967C614.515 833.031 613.366 838.698 610.984 844.18Z" fill="#E4E6EC"/>
<path d="M757.926 512.547C727.49 526.512 694.391 526.332 694.391 526.332L679.688 485.083L666.226 527.195C646.871 528.556 630.635 524.933 621.35 522.095L610.606 830.271H660.19L683.2 544.953L732.557 830.271H784.513L757.931 512.547H757.926Z" fill="#4F667D"/>
<path d="M764.595 478.996L715.759 497.603C713.894 498.314 711.808 497.359 711.125 495.485L705.278 479.439L703.4 480.205C701.369 481.012 699.071 479.997 698.296 477.953C697.516 475.903 698.429 473.37 700.465 472.553C698.051 473.522 695.25 471.921 695.074 469.055C694.973 467.407 696.011 465.898 697.543 465.28L697.59 465.261C697.253 465.395 696.911 465.483 696.565 465.52C694.354 465.769 692.481 463.849 692.481 461.62V461.574C692.481 459.936 693.478 458.463 694.996 457.854C692.873 458.708 690.473 457.568 689.795 455.381L689.758 455.265C689.149 453.304 690.155 451.209 692.065 450.456L694.387 449.543L676.97 401.75L679.688 485.069L694.391 526.318C694.391 526.318 737.362 526.558 770.4 505.836L764.595 478.986V478.996ZM840.179 353.108L770.922 290.482C767.345 287.251 763.049 284.926 758.388 283.698L717.6 272.996C718.334 273.896 718.832 274.985 719.04 276.143L727.379 322.219L716.063 328.666L726.664 333.535L719.829 354.894L752.526 342.433L758.078 344.201L805.876 382.454L756.071 409.923L775.551 452.321L833.972 417.141C856.992 403.277 860.107 371.124 840.175 353.103L840.179 353.108Z" fill="#4AC0F0"/>
<path d="M676.97 401.759C657.679 377.124 643.4 338.884 643.4 338.884L653.904 331.052L641.873 325.704C641.873 325.704 649.127 288.654 651.232 281.017C651.467 280.167 651.873 279.364 652.404 278.612L624.931 288.516C616.85 291.428 610.624 297.995 608.146 306.219L586.493 378.079L540.656 311.766L499.98 339.267L549.748 413.684C567.405 440.086 607.385 436.062 619.425 406.674L621.437 401.763L624.691 439.537L612.946 519.095C612.946 519.095 635.721 529.345 666.231 527.195L679.693 485.083L676.974 401.763L676.97 401.759Z" fill="#4AC0F0"/>
<path d="M800.799 461.426L793.535 441.499L775.555 452.325L756.075 409.927L777.687 398.007L758.083 344.205C757.4 342.332 755.314 341.376 753.45 342.087L670.499 373.695C668.672 374.392 667.744 376.427 668.414 378.264L694.391 449.547L692.07 450.461C690.159 451.213 689.153 453.308 689.763 455.27L689.799 455.385C690.478 457.573 692.878 458.713 695.001 457.859C693.482 458.468 692.485 459.94 692.485 461.578V461.625C692.485 463.849 694.354 465.774 696.57 465.524C696.911 465.487 697.257 465.4 697.594 465.266L697.548 465.284C696.016 465.898 694.982 467.412 695.079 469.059C695.254 471.925 698.056 473.527 700.469 472.558C698.439 473.374 697.525 475.908 698.3 477.957C699.076 480.002 701.374 481.017 703.404 480.209L705.283 479.443L711.13 495.49C711.813 497.363 713.899 498.318 715.763 497.608L798.713 466C800.541 465.303 801.469 463.268 800.799 461.431V461.426Z" fill="#1C3C4F"/>
<path d="M757.4 412.816L745.581 419.333L762.255 455.625L773.857 448.638L757.4 412.816Z" fill="white"/>
<path d="M747.879 424.331L730.882 432.112C725.82 430.321 717.706 431.53 712.242 432.01C708.204 432.366 704.6 431.913 702.371 431.498L701.189 431.226C699.385 430.81 697.627 432.089 697.46 433.935C697.253 436.214 698.125 438.697 700.719 439.366L712.551 442.389L692.065 450.461C690.155 451.213 689.149 453.308 689.758 455.27L689.795 455.385C690.473 457.573 692.873 458.713 694.996 457.859C693.478 458.468 692.481 459.94 692.481 461.578V461.625C692.481 463.849 694.35 465.773 696.565 465.524C696.907 465.487 697.253 465.4 697.59 465.266L697.543 465.284C696.011 465.898 694.978 467.412 695.074 469.059C695.25 471.925 698.051 473.527 700.465 472.558C698.434 473.374 697.52 475.908 698.296 477.957C699.071 480.002 701.369 481.017 703.4 480.209L725.026 471.395C728.021 470.116 730.347 469.064 731.579 468.413C736.817 465.63 739.923 460.979 741.644 457.402L759.32 449.247L747.879 424.34V424.331Z" fill="#FFB197"/>
<path d="M700.626 273.046C701.997 273.185 703.141 273.471 704.06 273.822C706.09 274.606 707.341 276.66 707.207 278.834L702.177 361.622L719.834 354.894L726.669 333.535L716.068 328.666L727.384 322.219L719.045 276.143C718.726 274.389 717.766 272.802 716.308 271.773C710.461 267.647 700.409 267.352 700.405 267.352L700.635 272.576C700.645 272.733 700.631 272.89 700.626 273.046ZM676.97 401.759L668.123 377.479C667.509 375.799 667.038 374.069 666.734 372.306C660.028 333.42 662.382 297.234 662.751 283.232C662.815 280.772 664.038 278.497 666.055 277.08L669.013 275.003L668.898 269.654C668.898 269.654 653.332 273.379 651.232 281.017C649.132 288.654 641.873 325.704 641.873 325.704L653.904 331.052L643.4 338.884C643.4 338.884 657.679 377.119 676.97 401.759Z" fill="#8ADDFF"/>
<path d="M671.764 280.666C670.103 279.614 669.069 277.795 669.027 275.829L669.009 275.008L666.051 277.085C664.038 278.497 662.811 280.772 662.746 283.232C662.691 285.281 662.594 287.819 662.492 290.754C662.516 290.768 662.534 290.782 662.557 290.796C664.68 293.491 667.694 296.708 671.473 299.167L678.433 283.015C676.139 282.729 673.878 282.009 671.764 280.67V280.666ZM706.815 285.285L707.207 278.834C707.341 276.66 706.09 274.606 704.06 273.822C703.146 273.471 701.997 273.185 700.626 273.046C700.626 273.042 700.626 273.037 700.626 273.033C700.562 275.036 699.486 276.881 697.733 277.897C694.548 279.734 689.232 282.313 683.588 282.992L690.215 298.087C690.215 298.087 700.986 291.613 706.819 285.285H706.815Z" fill="white"/>
<path d="M683.588 282.992C681.885 283.195 680.15 283.227 678.433 283.01L673.795 293.782L676.61 298.087H685.023L688.138 293.362L683.588 282.992Z" fill="#FF8387"/>
<path d="M676.605 298.087L670.495 373.7L694.876 364.41L685.018 298.087H676.605Z" fill="#FF9497"/>
<path d="M476.983 306.588L459.303 294.709C457.499 293.472 457.065 290.999 458.329 289.217C459.594 287.431 462.211 286.776 464.02 288.008L458.777 284.395C456.627 282.932 456.396 279.711 458.68 277.971C459.991 276.969 461.823 276.988 463.189 277.915L458.043 274.366C457.743 274.163 457.48 273.923 457.259 273.66C455.819 271.962 456.373 269.341 458.219 268.099L458.256 268.076C459.612 267.162 461.394 267.172 462.746 268.09L467.933 271.667C466.041 270.379 465.649 267.748 467.089 265.967L467.163 265.875C468.45 264.278 470.753 263.941 472.442 265.109L480.569 270.721V60.8026H38.4614V486.227H480.56V308.868C479.531 308.231 478.326 307.465 476.979 306.593L476.983 306.588Z" fill="white"/>
<path d="M489.255 486.227H29.7667V508.545H489.255V486.227Z" fill="#7081A9"/>
<path d="M72.0032 508.545L39.509 882.979H51.5403L101.955 508.545H72.0032Z" fill="#4F667D"/>
<path d="M71.9986 508.545L71.7356 511.624H101.539L101.955 508.545H71.9986Z" fill="#1C3C4F"/>
<path d="M447.023 508.545L479.517 882.979H467.486L417.067 508.545H447.023Z" fill="#4F667D"/>
<path d="M447.023 508.545H417.067L417.482 511.624H447.29L447.023 508.545Z" fill="#1C3C4F"/>
<path d="M243.257 508.545L252.325 882.979H266.696L275.769 508.545H243.257Z" fill="#4F667D"/>
<path d="M275.769 508.545H243.257L243.335 511.624H275.686L275.769 508.545Z" fill="#1C3C4F"/>
<path d="M355.927 88.5157H163.094V104.474H355.927V88.5157Z" fill="#91DFF2"/>
<path d="M154.667 216.596C177.133 216.596 195.344 234.807 195.344 257.272C195.344 266.839 192.035 275.626 186.506 282.572L218.35 307.871C229.402 293.98 236.02 276.406 236.02 257.272C236.02 212.341 199.594 175.915 154.663 175.915C109.731 175.915 73.3047 212.341 73.3047 257.272H113.981C113.981 234.807 132.192 216.596 154.658 216.596H154.667Z" fill="#4AC0F0"/>
<path d="M218.349 307.871L186.506 282.572C179.053 291.94 167.566 297.954 154.662 297.954V338.63C180.465 338.63 203.443 326.603 218.345 307.871H218.349Z" fill="#9D83E8"/>
<path d="M154.667 297.954C132.201 297.954 113.99 279.743 113.99 257.277H73.3138C73.3138 302.209 109.74 338.635 154.672 338.635V297.958L154.667 297.954Z" fill="#DD0031"/>
<path d="M283.573 329.571H261.421V345.53H283.573V329.571Z" fill="#9D83E8"/>
<path d="M283.573 384.693H261.421V400.651H283.573V384.693Z" fill="#DD0031"/>
<path d="M283.573 357.132H261.421V373.091H283.573V357.132Z" fill="#4AC0F0"/>
<path d="M319.067 269.064H294.455V307.207H319.067V269.064Z" fill="#9D83E8"/>
<path d="M409.747 229.979H385.136V307.207H409.747V229.979Z" fill="#DD0031"/>
<path d="M364.41 210.439H339.798V307.211H364.41V210.439Z" fill="#4AC0F0"/>
<path d="M351.834 120.23H167.188C166.338 120.23 165.646 119.542 165.646 118.689C165.646 117.835 166.334 117.147 167.188 117.147H351.834C352.683 117.147 353.375 117.835 353.375 118.689C353.375 119.542 352.687 120.23 351.834 120.23ZM452.565 449.381H66.456C65.6068 449.381 64.9146 448.693 64.9146 447.84C64.9146 446.986 65.6022 446.298 66.456 446.298H452.565C453.414 446.298 454.107 446.986 454.107 447.84C454.107 448.693 453.419 449.381 452.565 449.381ZM452.565 423.288H66.456C65.6068 423.288 64.9146 422.6 64.9146 421.746C64.9146 420.893 65.6022 420.205 66.456 420.205H452.565C453.414 420.205 454.107 420.893 454.107 421.746C454.107 422.6 453.419 423.288 452.565 423.288ZM452.565 436.334H66.456C65.6068 436.334 64.9146 435.647 64.9146 434.793C64.9146 433.939 65.6022 433.252 66.456 433.252H452.565C453.414 433.252 454.107 433.939 454.107 434.793C454.107 435.647 453.419 436.334 452.565 436.334ZM452.565 462.428H66.456C65.6068 462.428 64.9146 461.74 64.9146 460.886C64.9146 460.032 65.6022 459.345 66.456 459.345H452.565C453.414 459.345 454.107 460.032 454.107 460.886C454.107 461.74 453.419 462.428 452.565 462.428Z" fill="#E4E6EC"/>
<path d="M395.676 397.144H301.909C301.06 397.144 300.367 397.832 300.367 398.685C300.367 399.539 301.055 400.227 301.909 400.227H395.676C396.525 400.227 397.218 399.539 397.218 398.685C397.218 397.832 396.53 397.144 395.676 397.144ZM370.658 385.126H301.909C301.06 385.126 300.367 385.814 300.367 386.668C300.367 387.522 301.055 388.209 301.909 388.209H370.658C371.508 388.209 372.2 387.522 372.2 386.668C372.2 385.814 371.512 385.126 370.658 385.126ZM395.676 369.583H301.909C301.06 369.583 300.367 370.271 300.367 371.125C300.367 371.978 301.055 372.666 301.909 372.666H395.676C396.525 372.666 397.218 371.978 397.218 371.125C397.218 370.271 396.53 369.583 395.676 369.583ZM370.658 357.561H301.909C301.06 357.561 300.367 358.249 300.367 359.102C300.367 359.956 301.055 360.644 301.909 360.644H370.658C371.508 360.644 372.2 359.956 372.2 359.102C372.2 358.249 371.512 357.561 370.658 357.561ZM395.676 342.022H301.909C301.06 342.022 300.367 342.71 300.367 343.564C300.367 344.418 301.055 345.105 301.909 345.105H395.676C396.525 345.105 397.218 344.418 397.218 343.564C397.218 342.71 396.53 342.022 395.676 342.022ZM370.658 330H301.909C301.06 330 300.367 330.688 300.367 331.542C300.367 332.395 301.055 333.083 301.909 333.083H370.658C371.508 333.083 372.2 332.395 372.2 331.542C372.2 330.688 371.512 330 370.658 330ZM235.54 351.488H201.163C200.314 351.488 199.622 350.8 199.622 349.946C199.622 349.093 200.309 348.405 201.163 348.405H235.54C236.39 348.405 237.082 349.093 237.082 349.946C237.082 350.8 236.394 351.488 235.54 351.488Z" fill="#4F667D"/>
<path d="M226.366 363.505H201.163C200.314 363.505 199.622 362.817 199.622 361.964C199.622 361.11 200.309 360.422 201.163 360.422H226.366C227.215 360.422 227.907 361.11 227.907 361.964C227.907 362.817 227.22 363.505 226.366 363.505Z" fill="#E4E6EC"/>
<path d="M126.682 351.488H92.3046C91.4554 351.488 90.7632 350.8 90.7632 349.946C90.7632 349.092 91.4508 348.405 92.3046 348.405H126.682C127.531 348.405 128.223 349.092 128.223 349.946C128.223 350.8 127.536 351.488 126.682 351.488Z" fill="#4F667D"/>
<path d="M117.512 363.505H92.3092C91.4601 363.505 90.7678 362.817 90.7678 361.964C90.7678 361.11 91.4555 360.422 92.3092 360.422H117.512C118.361 360.422 119.053 361.11 119.053 361.964C119.053 362.817 118.366 363.505 117.512 363.505Z" fill="#E4E6EC"/>
<path d="M126.682 147.966H92.3046C91.4554 147.966 90.7632 147.278 90.7632 146.425C90.7632 145.571 91.4508 144.883 92.3046 144.883H126.682C127.531 144.883 128.223 145.571 128.223 146.425C128.223 147.278 127.536 147.966 126.682 147.966Z" fill="#4F667D"/>
<path d="M117.512 159.984H92.3092C91.4601 159.984 90.7678 159.296 90.7678 158.442C90.7678 157.588 91.4555 156.901 92.3092 156.901H117.512C118.361 156.901 119.053 157.588 119.053 158.442C119.053 159.296 118.366 159.984 117.512 159.984ZM226.366 375.135H201.163C200.314 375.135 199.622 374.447 199.622 373.593C199.622 372.74 200.309 372.052 201.163 372.052H226.366C227.215 372.052 227.907 372.74 227.907 373.593C227.907 374.447 227.22 375.135 226.366 375.135ZM117.512 375.135H92.3092C91.4601 375.135 90.7678 374.447 90.7678 373.593C90.7678 372.74 91.4555 372.052 92.3092 372.052H117.512C118.361 372.052 119.053 372.74 119.053 373.593C119.053 374.447 118.366 375.135 117.512 375.135ZM117.512 171.613H92.3092C91.4601 171.613 90.7678 170.926 90.7678 170.072C90.7678 169.218 91.4555 168.531 92.3092 168.531H117.512C118.361 168.531 119.053 169.218 119.053 170.072C119.053 170.926 118.366 171.613 117.512 171.613Z" fill="#E4E6EC"/>
<path d="M261.421 172.892H255.786C254.937 172.892 254.245 172.204 254.245 171.35C254.245 170.497 254.933 169.809 255.786 169.809H261.421C262.271 169.809 262.963 170.497 262.963 171.35C262.963 172.204 262.275 172.892 261.421 172.892ZM261.421 192.436H255.786C254.937 192.436 254.245 191.749 254.245 190.895C254.245 190.041 254.933 189.353 255.786 189.353H261.421C262.271 189.353 262.963 190.041 262.963 190.895C262.963 191.749 262.275 192.436 261.421 192.436ZM261.421 211.976H255.786C254.937 211.976 254.245 211.289 254.245 210.435C254.245 209.581 254.933 208.893 255.786 208.893H261.421C262.271 208.893 262.963 209.581 262.963 210.435C262.963 211.289 262.275 211.976 261.421 211.976ZM261.421 231.521H255.786C254.937 231.521 254.245 230.833 254.245 229.979C254.245 229.126 254.933 228.438 255.786 228.438H261.421C262.271 228.438 262.963 229.126 262.963 229.979C262.963 230.833 262.275 231.521 261.421 231.521ZM261.421 251.061H255.786C254.937 251.061 254.245 250.373 254.245 249.519C254.245 248.665 254.933 247.978 255.786 247.978H261.421C262.271 247.978 262.963 248.665 262.963 249.519C262.963 250.373 262.275 251.061 261.421 251.061ZM261.421 270.605H255.786C254.937 270.605 254.245 269.918 254.245 269.064C254.245 268.21 254.933 267.522 255.786 267.522H261.421C262.271 267.522 262.963 268.21 262.963 269.064C262.963 269.918 262.275 270.605 261.421 270.605ZM306.764 314.383C305.915 314.383 305.222 313.695 305.222 312.842V307.207C305.222 306.358 305.91 305.665 306.764 305.665C307.617 305.665 308.305 306.353 308.305 307.207V312.842C308.305 313.691 307.617 314.383 306.764 314.383ZM352.101 314.383C351.252 314.383 350.56 313.695 350.56 312.842V307.207C350.56 306.358 351.248 305.665 352.101 305.665C352.955 305.665 353.643 306.353 353.643 307.207V312.842C353.643 313.691 352.955 314.383 352.101 314.383ZM397.444 314.383C396.595 314.383 395.902 313.695 395.902 312.842V307.207C395.902 306.358 396.59 305.665 397.444 305.665C398.298 305.665 398.985 306.353 398.985 307.207V312.842C398.985 313.691 398.298 314.383 397.444 314.383ZM261.421 290.145H255.786C254.937 290.145 254.245 289.457 254.245 288.604C254.245 287.75 254.933 287.062 255.786 287.062H261.421C262.271 287.062 262.963 287.75 262.963 288.604C262.963 289.457 262.275 290.145 261.421 290.145Z" fill="#4F667D"/>
<path d="M396.036 192.03C395.833 192.03 395.625 191.989 395.427 191.906L354.584 174.299C353.804 173.962 353.444 173.058 353.781 172.278C354.118 171.498 355.023 171.138 355.803 171.475L396.645 189.081C397.425 189.418 397.785 190.323 397.448 191.103C397.199 191.684 396.632 192.035 396.032 192.035L396.036 192.03Z" fill="#FF9497"/>
<path d="M308.614 229.324C308.287 229.324 307.954 229.218 307.673 229.001C306.999 228.479 306.874 227.515 307.396 226.841L348.552 173.626C349.074 172.952 350.043 172.832 350.712 173.349C351.386 173.87 351.511 174.835 350.989 175.508L309.833 228.724C309.528 229.116 309.076 229.324 308.614 229.324Z" fill="#91DFF2"/>
<path d="M692.993 247.179C693.404 246.436 693.136 245.5 692.393 245.084C691.646 244.673 690.713 244.941 690.298 245.684C690.243 245.786 684.515 255.754 668.607 256.192L668.672 259.294C686.324 258.828 692.721 247.659 692.988 247.175L692.993 247.179Z" fill="#EF7756"/>
<path d="M754.294 309.671C754.077 309.671 753.856 309.625 753.643 309.528C752.873 309.168 752.54 308.25 752.9 307.484L759.251 293.883C759.611 293.113 760.529 292.78 761.295 293.14C762.066 293.5 762.398 294.419 762.038 295.185L755.688 308.785C755.425 309.343 754.871 309.676 754.289 309.676L754.294 309.671ZM813.334 374.798L803.25 380.359L805.881 382.464L814.82 377.498C815.563 377.087 815.835 376.15 815.424 375.407C815.014 374.664 814.077 374.392 813.334 374.803V374.798ZM621.428 401.759L619.37 378.033C618.525 368.226 618.096 358.262 618.096 348.419V338.136C618.096 337.287 617.409 336.595 616.555 336.595C615.701 336.595 615.013 337.283 615.013 338.136V348.419C615.013 358.35 615.447 368.406 616.296 378.301L618.848 407.929C619.038 407.509 619.236 407.108 619.411 406.678L621.424 401.768L621.428 401.759ZM593.78 388.555C594.08 388.989 594.56 389.22 595.049 389.22C595.349 389.22 595.658 389.132 595.921 388.948C596.623 388.463 596.798 387.503 596.313 386.806L587.642 374.258L586.488 378.079L593.78 388.555Z" fill="#4A3CA3"/>
<path d="M685.586 547.085C685.461 547.085 685.337 547.071 685.212 547.039L669.761 543.199C668.935 542.996 668.432 542.161 668.64 541.335C668.843 540.509 669.678 540.006 670.504 540.214L685.955 544.053C686.781 544.256 687.284 545.092 687.077 545.918C686.901 546.619 686.274 547.085 685.581 547.085H685.586Z" fill="#1C3C4F"/>
<path d="M694.996 459.4C694.387 459.4 693.81 459.036 693.565 458.436C693.247 457.646 693.63 456.751 694.419 456.433L708.998 450.576C709.787 450.258 710.682 450.641 711.001 451.43C711.319 452.219 710.936 453.115 710.147 453.433L695.568 459.289C695.379 459.363 695.185 459.4 694.996 459.4ZM697.539 466.826C696.93 466.826 696.353 466.461 696.108 465.861C695.79 465.072 696.173 464.177 696.962 463.858L711.975 457.826C712.764 457.508 713.659 457.891 713.977 458.68C714.296 459.469 713.913 460.365 713.124 460.683L698.111 466.715C697.922 466.789 697.728 466.826 697.539 466.826ZM700.46 474.099C699.851 474.099 699.274 473.734 699.029 473.134C698.711 472.345 699.094 471.45 699.883 471.132L714.91 465.095C715.699 464.777 716.594 465.16 716.913 465.949C717.231 466.738 716.848 467.633 716.059 467.952L701.032 473.988C700.843 474.062 700.649 474.099 700.46 474.099ZM712.547 442.399L718.496 439.999C719.285 439.685 719.672 438.79 719.359 438C719.045 437.211 718.149 436.819 717.36 437.137L707.406 441.088L712.542 442.399H712.547Z" fill="#EF7756"/>
<path d="M676.96 401.745L678.216 487.409C678.23 488.253 678.917 488.927 679.757 488.927H679.78C680.629 488.913 681.308 488.216 681.299 487.362L680.172 410.555L676.965 401.75L676.96 401.745Z" fill="#7566DA"/>
<path d="M306.764 235.697C309.81 235.697 312.279 233.228 312.279 230.182C312.279 227.137 309.81 224.667 306.764 224.667C303.718 224.667 301.249 227.137 301.249 230.182C301.249 233.228 303.718 235.697 306.764 235.697Z" fill="#9D83E8"/>
<path d="M352.101 177.068C355.147 177.068 357.616 174.599 357.616 171.553C357.616 168.508 355.147 166.038 352.101 166.038C349.056 166.038 346.586 168.508 346.586 171.553C346.586 174.599 349.056 177.068 352.101 177.068Z" fill="#4AC0F0"/>
<path d="M397.444 196.613C400.49 196.613 402.959 194.144 402.959 191.098C402.959 188.052 400.49 185.583 397.444 185.583C394.398 185.583 391.929 188.052 391.929 191.098C391.929 194.144 394.398 196.613 397.444 196.613Z" fill="#DD0031"/>
<path d="M921.459 884.52H1.54141C0.69225 884.52 0 883.832 0 882.979C0 882.125 0.687635 881.437 1.54141 881.437H921.463C922.312 881.437 923.005 882.125 923.005 882.979C923.005 883.832 922.317 884.52 921.463 884.52H921.459Z" fill="#1C3C4F"/>
<path d="M261.421 308.748C260.572 308.748 259.88 308.06 259.88 307.207V153.089C259.88 152.24 260.568 151.547 261.421 151.547C262.275 151.547 262.963 152.235 262.963 153.089V307.207C262.963 308.056 262.275 308.748 261.421 308.748Z" fill="#382C25"/>
<path d="M436.967 308.748H261.421C260.572 308.748 259.88 308.06 259.88 307.207C259.88 306.353 260.568 305.665 261.421 305.665H436.967C437.816 305.665 438.508 306.353 438.508 307.207C438.508 308.06 437.82 308.748 436.967 308.748Z" fill="#382C25"/>
<path d="M489.255 38.4799H29.7667V60.798H489.255V38.4799Z" fill="#7081A9"/>
<path d="M537.606 313.829L530.167 303.067L496.528 325.81L503.801 336.683L537.606 313.829Z" fill="#E4E6EC"/>
<path d="M525.099 306.496L512.86 289.568C511.527 284.367 505.998 278.303 502.56 274.034C500.017 270.877 498.378 267.633 497.483 265.552L497.049 264.416C496.385 262.686 494.35 261.938 492.72 262.829C490.713 263.927 489.135 266.036 490.025 268.561L494.11 280.075L472.438 265.109C470.748 263.941 468.446 264.278 467.158 265.875L467.084 265.967C465.649 267.748 466.037 270.379 467.929 271.667L462.741 268.09C461.389 267.167 459.612 267.162 458.251 268.076L458.214 268.099C456.368 269.341 455.814 271.962 457.254 273.66C457.476 273.923 457.739 274.163 458.039 274.366L463.184 277.915C461.818 276.988 459.986 276.969 458.676 277.971C456.391 279.715 456.627 282.932 458.773 284.395L464.015 288.008C462.206 286.776 459.589 287.431 458.325 289.217C457.06 291.003 457.499 293.472 459.299 294.709L476.979 306.588C479.711 308.36 481.875 309.708 483.107 310.368C487.27 312.597 491.659 313.04 495.259 312.846L501.987 322.118L525.095 306.496H525.099Z" fill="#FFB197"/>
<path d="M484.413 284.57C484.114 284.57 483.809 284.482 483.541 284.298L467.052 272.931C466.35 272.451 466.175 271.491 466.66 270.79C467.14 270.088 468.099 269.913 468.801 270.397L485.29 281.764C485.992 282.244 486.167 283.204 485.683 283.906C485.383 284.339 484.903 284.57 484.413 284.57ZM480.052 291.082C479.752 291.082 479.448 290.994 479.18 290.81L462.308 279.18C461.606 278.7 461.431 277.74 461.915 277.038C462.395 276.337 463.355 276.162 464.057 276.646L480.929 288.276C481.631 288.756 481.806 289.716 481.321 290.417C481.021 290.851 480.541 291.082 480.052 291.082ZM475.654 297.571C475.354 297.571 475.05 297.483 474.782 297.298L463.138 289.273C462.437 288.793 462.261 287.833 462.746 287.131C463.226 286.43 464.186 286.255 464.887 286.739L476.531 294.765C477.233 295.245 477.408 296.204 476.923 296.906C476.623 297.34 476.143 297.571 475.654 297.571ZM501.794 297.081C501.637 297.081 501.475 297.058 501.318 297.008C495.974 295.277 492.785 290.93 492.342 284.764C492.282 283.915 492.919 283.176 493.768 283.116C494.626 283.061 495.356 283.693 495.416 284.542C495.771 289.508 498.078 292.716 502.269 294.072C503.077 294.335 503.52 295.203 503.261 296.011C503.049 296.661 502.444 297.077 501.798 297.077L501.794 297.081ZM497.28 315.624C499.486 315.121 502.384 314.171 505.093 312.348C505.799 311.872 505.984 310.917 505.509 310.211C505.033 309.505 504.078 309.32 503.372 309.796C500.469 311.748 497.206 312.523 495.263 312.851L497.28 315.629V315.624Z" fill="#EF7756"/>
<path d="M673.024 226.034C674.974 226.034 676.554 224.219 676.554 221.982C676.554 219.744 674.974 217.93 673.024 217.93C671.074 217.93 669.493 219.744 669.493 221.982C669.493 224.219 671.074 226.034 673.024 226.034Z" fill="#1C3C4F"/>
<path d="M654.107 226.624C656.057 226.624 657.638 224.81 657.638 222.572C657.638 220.334 656.057 218.52 654.107 218.52C652.157 218.52 650.577 220.334 650.577 222.572C650.577 224.81 652.157 226.624 654.107 226.624Z" fill="#1C3C4F"/>
<path d="M663.637 243.455C661.611 243.455 660.323 243.109 660.204 243.077C659.354 242.841 658.861 241.964 659.096 241.115C659.331 240.271 660.199 239.772 661.048 240.008C661.279 240.068 666.692 241.452 672.978 237.345C673.716 236.86 674.699 237.068 675.184 237.806C675.664 238.545 675.456 239.528 674.722 240.008C670.398 242.832 666.351 243.455 663.637 243.455ZM659.027 235.54C658.602 235.54 658.177 235.37 657.864 235.037C657.264 234.396 657.296 233.39 657.938 232.785C661.043 229.873 661.08 224.654 661.08 224.603C661.08 223.721 661.791 223.011 662.673 223.011C663.554 223.011 664.265 223.721 664.265 224.603C664.265 224.875 664.219 231.262 660.116 235.111C659.807 235.397 659.419 235.54 659.027 235.54Z" fill="#EF7756"/>
</g>
<defs>
<clipPath id="clip0_21_16">
<rect width="923" height="923" fill="white"/>
</clipPath>
</defs>
</svg>
